<svg width="21" height="20" viewBox="0 0 21 20" fill="none" xmlns="http://www.w3.org/2000/svg">
<g id="more-vertical">
<g id="Icon">
<path d="M10.6668 10.8333C11.1271 10.8333 11.5002 10.4602 11.5002 9.99992C11.5002 9.53968 11.1271 9.16659 10.6668 9.16659C10.2066 9.16659 9.8335 9.53968 9.8335 9.99992C9.8335 10.4602 10.2066 10.8333 10.6668 10.8333Z" stroke="#98A2B3" stroke-width="1.66667" stroke-linecap="round" stroke-linejoin="round"/>
<path d="M10.6668 4.99992C11.1271 4.99992 11.5002 4.62682 11.5002 4.16659C11.5002 3.70635 11.1271 3.33325 10.6668 3.33325C10.2066 3.33325 9.8335 3.70635 9.8335 4.16659C9.8335 4.62682 10.2066 4.99992 10.6668 4.99992Z" stroke="#98A2B3" stroke-width="1.66667" stroke-linecap="round" stroke-linejoin="round"/>
<path d="M10.6668 16.6666C11.1271 16.6666 11.5002 16.2935 11.5002 15.8333C11.5002 15.373 11.1271 14.9999 10.6668 14.9999C10.2066 14.9999 9.8335 15.373 9.8335 15.8333C9.8335 16.2935 10.2066 16.6666 10.6668 16.6666Z" stroke="#98A2B3" stroke-width="1.66667" stroke-linecap="round" stroke-linejoin="round"/>
</g>
</g>
</svg>
